<mxfile host="Electron" agent="Mozilla/5.0 (Windows NT 10.0; Win64; x64) AppleWebKit/537.36 (KHTML, like Gecko) draw.io/24.7.17 Chrome/128.0.6613.36 Electron/32.0.1 Safari/537.36" version="24.7.17">
  <diagram name="第 1 页" id="xZD66wjxWaCIn4eXtRrG">
    <mxGraphModel dx="1671" dy="967" grid="1" gridSize="10" guides="1" tooltips="1" connect="1" arrows="1" fold="1" page="1" pageScale="1" pageWidth="1169" pageHeight="827" math="0" shadow="0">
      <root>
        <mxCell id="0" />
        <mxCell id="1" parent="0" />
        <mxCell id="o7vyvhMmnCs4x8c5grMu-2" value="" style="rounded=0;whiteSpace=wrap;html=1;" parent="1" vertex="1">
          <mxGeometry x="240" y="220" width="960" height="590" as="geometry" />
        </mxCell>
        <mxCell id="o7vyvhMmnCs4x8c5grMu-3" value="" style="rounded=0;whiteSpace=wrap;html=1;fillColor=#f5f5f5;fontColor=#333333;strokeColor=#666666;" parent="1" vertex="1">
          <mxGeometry x="240" y="270" width="960" height="540" as="geometry" />
        </mxCell>
        <mxCell id="o7vyvhMmnCs4x8c5grMu-4" value="" style="line;strokeWidth=1;fillColor=none;align=left;verticalAlign=middle;spacingTop=-1;spacingLeft=3;spacingRight=3;rotatable=0;labelPosition=right;points=[];portConstraint=eastwest;strokeColor=inherit;" parent="1" vertex="1">
          <mxGeometry x="240" y="265" width="960" height="8" as="geometry" />
        </mxCell>
        <mxCell id="o7vyvhMmnCs4x8c5grMu-5" value="欢迎，ikklo！" style="text;align=center;fontStyle=1;verticalAlign=middle;spacingLeft=3;spacingRight=3;strokeColor=none;rotatable=0;points=[[0,0.5],[1,0.5]];portConstraint=eastwest;html=1;" parent="1" vertex="1">
          <mxGeometry x="675" y="230" width="90" height="30" as="geometry" />
        </mxCell>
        <mxCell id="o7vyvhMmnCs4x8c5grMu-6" value="头像" style="ellipse;whiteSpace=wrap;html=1;aspect=fixed;" parent="1" vertex="1">
          <mxGeometry x="250" y="225" width="40" height="40" as="geometry" />
        </mxCell>
        <mxCell id="o7vyvhMmnCs4x8c5grMu-15" value="" style="triangle;whiteSpace=wrap;html=1;rotation=-180;" parent="1" vertex="1">
          <mxGeometry x="1169" y="230" width="20" height="30" as="geometry" />
        </mxCell>
        <mxCell id="20PlM9OZ1OyBLNvYKhkq-2" value="" style="rounded=0;whiteSpace=wrap;html=1;" vertex="1" parent="1">
          <mxGeometry x="402.5" y="270" width="635" height="540" as="geometry" />
        </mxCell>
        <mxCell id="20PlM9OZ1OyBLNvYKhkq-3" value="点击上传封面" style="rounded=0;whiteSpace=wrap;html=1;fontSize=20;fillColor=#f5f5f5;fontColor=#333333;strokeColor=#666666;" vertex="1" parent="1">
          <mxGeometry x="430" y="290" width="120" height="160" as="geometry" />
        </mxCell>
        <mxCell id="20PlM9OZ1OyBLNvYKhkq-4" value="填写书名" style="text;html=1;align=center;verticalAlign=middle;whiteSpace=wrap;rounded=0;fontSize=20;strokeColor=#666666;fillColor=#f5f5f5;fontColor=#333333;" vertex="1" parent="1">
          <mxGeometry x="585" y="310" width="395" height="30" as="geometry" />
        </mxCell>
        <mxCell id="20PlM9OZ1OyBLNvYKhkq-5" value="填写版号，出版社等信息" style="rounded=0;whiteSpace=wrap;html=1;fillColor=#f5f5f5;fontColor=#333333;strokeColor=#666666;fontSize=20;" vertex="1" parent="1">
          <mxGeometry x="585" y="360" width="395" height="90" as="geometry" />
        </mxCell>
        <mxCell id="20PlM9OZ1OyBLNvYKhkq-7" value="" style="endArrow=classic;html=1;rounded=0;entryX=1;entryY=0.5;entryDx=0;entryDy=0;" edge="1" parent="1" target="20PlM9OZ1OyBLNvYKhkq-5">
          <mxGeometry width="50" height="50" relative="1" as="geometry">
            <mxPoint x="1240" y="370" as="sourcePoint" />
            <mxPoint x="1350" y="450" as="targetPoint" />
          </mxGeometry>
        </mxCell>
        <mxCell id="20PlM9OZ1OyBLNvYKhkq-8" value="分多个条目" style="text;html=1;align=center;verticalAlign=middle;whiteSpace=wrap;rounded=0;fontSize=20;" vertex="1" parent="1">
          <mxGeometry x="1230" y="340" width="140" height="60" as="geometry" />
        </mxCell>
        <mxCell id="20PlM9OZ1OyBLNvYKhkq-9" value="填写介绍" style="rounded=0;whiteSpace=wrap;html=1;fontSize=20;fillColor=#f5f5f5;fontColor=#333333;strokeColor=#666666;" vertex="1" parent="1">
          <mxGeometry x="430" y="480" width="550" height="100" as="geometry" />
        </mxCell>
        <mxCell id="20PlM9OZ1OyBLNvYKhkq-10" value="选择分类" style="rounded=0;whiteSpace=wrap;html=1;fillColor=#f5f5f5;fontColor=#333333;strokeColor=#666666;" vertex="1" parent="1">
          <mxGeometry x="430" y="600" width="100" height="40" as="geometry" />
        </mxCell>
        <mxCell id="20PlM9OZ1OyBLNvYKhkq-12" value="tag1，tag2，tag3+" style="text;html=1;align=center;verticalAlign=middle;whiteSpace=wrap;rounded=0;fillColor=#f5f5f5;fontColor=#333333;strokeColor=#666666;" vertex="1" parent="1">
          <mxGeometry x="590" y="600" width="390" height="40" as="geometry" />
        </mxCell>
        <mxCell id="20PlM9OZ1OyBLNvYKhkq-13" value="" style="endArrow=classic;html=1;rounded=0;entryX=1;entryY=0.5;entryDx=0;entryDy=0;" edge="1" parent="1" target="20PlM9OZ1OyBLNvYKhkq-12">
          <mxGeometry width="50" height="50" relative="1" as="geometry">
            <mxPoint x="1240" y="680" as="sourcePoint" />
            <mxPoint x="1260" y="680" as="targetPoint" />
          </mxGeometry>
        </mxCell>
        <mxCell id="20PlM9OZ1OyBLNvYKhkq-14" value="上传" style="rounded=0;whiteSpace=wrap;html=1;fillColor=#f5f5f5;fontColor=#333333;strokeColor=#666666;" vertex="1" parent="1">
          <mxGeometry x="430" y="740" width="550" height="50" as="geometry" />
        </mxCell>
        <mxCell id="20PlM9OZ1OyBLNvYKhkq-15" value="tag最后的加号可点击&lt;div&gt;添加新的tag&lt;/div&gt;" style="text;html=1;align=center;verticalAlign=middle;whiteSpace=wrap;rounded=0;fontSize=20;" vertex="1" parent="1">
          <mxGeometry x="1240" y="650" width="190" height="80" as="geometry" />
        </mxCell>
        <mxCell id="20PlM9OZ1OyBLNvYKhkq-16" value="" style="endArrow=classic;html=1;rounded=0;entryX=0;entryY=0.5;entryDx=0;entryDy=0;" edge="1" parent="1" target="20PlM9OZ1OyBLNvYKhkq-10">
          <mxGeometry width="50" height="50" relative="1" as="geometry">
            <mxPoint x="150" y="710" as="sourcePoint" />
            <mxPoint x="130" y="670" as="targetPoint" />
          </mxGeometry>
        </mxCell>
        <mxCell id="20PlM9OZ1OyBLNvYKhkq-17" value="点击展开" style="text;html=1;align=center;verticalAlign=middle;whiteSpace=wrap;rounded=0;fontSize=20;" vertex="1" parent="1">
          <mxGeometry x="50" y="690" width="100" height="59" as="geometry" />
        </mxCell>
      </root>
    </mxGraphModel>
  </diagram>
</mxfile>
